<?xml version="1.0" encoding="utf-8"?>
<!-- Svg Vector Icons : http://www.onlinewebfonts.com/icon -->
<!DOCTYPE svg PUBLIC "-//W3C//DTD SVG 1.1//EN" "http://www.w3.org/Graphics/SVG/1.1/DTD/svg11.dtd">
<svg version="1.1" xmlns="http://www.w3.org/2000/svg" xmlns:xlink="http://www.w3.org/1999/xlink" x="0px" y="0px" viewBox="0 0 256 256" enable-background="new 0 0 256 256" xml:space="preserve">
<metadata> Svg Vector Icons : http://www.onlinewebfonts.com/icon </metadata>
<g><g><g><path fill="#000000" d="M172.4,35.7c-11.6-5.5-25.4-0.6-30.9,11c-5.5,11.6-0.6,25.4,11,30.9c0.3,0.1,0.5,0.2,0.8,0.3l-6.6,2.6l-2.7-7.7c-1.7-0.4-3.5-0.5-5.3-0.5c-6.8-9.7-9.2-21.2-8.6-24.2c0.7-2.6,5.2-15.5,25.1-20.2c4.8-1.1,7.8-6,6.7-10.8c-1.1-4.8-6-7.8-10.8-6.7c-29.8,7.1-37.1,28.7-38.3,33c-2.1,7.8,1.2,23,9.1,36c-1,1.2-1.9,2.5-2.6,4l-21.9,46.2c-1.3,2.7-1.8,5.5-1.8,8.3c-0.6,0.9-1.1,2-1.3,3.1l-23.4,91.9c-1.4,5.7,2,11.5,7.7,12.9c0.9,0.2,1.8,0.3,2.6,0.3c4.7,0,9.1-3.2,10.3-8l20.2-79.2c2.4,1,4.9,1.6,7.4,1.8l17.7,77.1c1.1,4.9,5.5,8.3,10.4,8.3c0.8,0,1.6-0.1,2.4-0.3c5.7-1.3,9.3-7,8-12.7L140,157.9c0.7,0.1,1.3,0.2,2,0.2c1.4,0,2.8-0.3,4.1-1c13.9-7.2,22.5-16.8,25.6-28.4c3.4-12.8-0.2-27.3-10.6-43.2c-0.3-0.5-0.7-0.9-1.1-1.3c-1.3-2-2.7-3.8-4.4-5.3c10.8,3.3,22.8-1.7,27.8-12.2C188.9,55,184,41.2,172.4,35.7z M154.3,124.1c-1,3.9-3.5,7.6-7.2,10.9l7.9-16.6C155,120.4,154.8,122.3,154.3,124.1z"/></g><g></g><g></g><g></g><g></g><g></g><g></g><g></g><g></g><g></g><g></g><g></g><g></g><g></g><g></g><g></g></g></g>
</svg>